# xmcd
#
# Track frame offsets:
#	150
#	18209
#	33792
#	48864
#	67283
#	86590
#	106799
#	124823
#	146201
#	173023
#	189995
#	205526
#	222223
#
# Disc length: 3124 seconds
#
# Revision: 0
# Processed by: cddbd v1.5.2PL0 Copyright (c) Steve Scherf et al.
# Submitted via: audiograbber 1.83.01
#
DISCID=ac0c320d
DTITLE=The Amplified Acoustic Band - Now. Here. This.
DYEAR=2016
DGENRE=
TTITLE0=Trust Me
TTITLE1=Chocolade Jesus
TTITLE2=I'm Falling Apart
TTITLE3=Yes I Do
TTITLE4=One Day Soon
TTITLE5=Home
TTITLE6=This Time
TTITLE7=Until I Hear It From You
TTITLE8=Trouble
TTITLE9=Good News From The World Outside
TTITLE10=Just Enought Of A Moon
TTITLE11=Love To Learn
TTITLE12=Word Up!
EXTD=
EXTT0=
EXTT1=
EXTT2=
EXTT3=
EXTT4=
EXTT5=
EXTT6=
EXTT7=
EXTT8=
EXTT9=
EXTT10=
EXTT11=
EXTT12=
PLAYORDER=
